<svg xmlns="http://www.w3.org/2000/svg" viewBox="0 0 1063.68 126.93"><defs><style>.cls-1{fill-rule:evenodd;}</style></defs><title>Asset 6</title><g id="Layer_2" data-name="Layer 2"><g id="Layer_1-2" data-name="Layer 1"><path d="M797.88,75.23a1.54,1.54,0,0,1,.07,1.27c-.17.72-.16,1.18-.09,1.19s.16-.27.33-.3a21.62,21.62,0,0,0,.61,3.53,3.39,3.39,0,0,1,0,.55c0,.31,0,.9.13.91s0-.28.26-.26a5.15,5.15,0,0,0,.39.82,16.39,16.39,0,0,1,.9,1.75c0,.47.32.69.17,1.29-.11.43.11.94.18.92s0-.46.32-.55a15,15,0,0,1,.9,3.43,21.14,21.14,0,0,1,.09,3.49,6.62,6.62,0,0,1-.21,1.08c-.14.35-.23.87-.29,1,.6-.86.54-.47.5-.14-.1.85-.26,2.5-.39,3.16-.91,4.73.55,6.57.69,8.1a3,3,0,0,0,2,2.44c1,.53,3.54.35,5.4.61a10,10,0,0,0,2.66.07c.18.22.34.49.45.61s.48,0,.45-.37c0-.12,0-.26-.05-.39l.29-.07c.23-.06.47-.13.69-.21a2.57,2.57,0,0,1,.48.95c0,.18.4.3.45-.11a4.43,4.43,0,0,0,0-1.2c.24-.12.47-.24.69-.38a3.65,3.65,0,0,1,.82,1.22c.06.18.42.29.45-.13a5.14,5.14,0,0,0-.27-1.93l0,0a1.87,1.87,0,0,0,.64-.29,2.13,2.13,0,0,1,.83.86c.07.19.43.29.42-.13a3.79,3.79,0,0,0-.72-1.75,1.91,1.91,0,0,0,0-.48,4.62,4.62,0,0,0-2.22-2.44,2.94,2.94,0,0,1-1.5-1.59c-.33-.59.16-1.33.6-2.17a15.37,15.37,0,0,0,1-3.19,21.33,21.33,0,0,1,1.31-2.75c0,.12,0,.24,0,.36.1,1.58.91,4.69.8,5.79s-.69,3.52.32,4.19,1,1.48,1.66,1.7h0a.16.16,0,0,0,.05.13,8.23,8.23,0,0,0,2,1,2.8,2.8,0,0,1,1.05.65.19.19,0,0,0,.32-.21,2.33,2.33,0,0,0-.09-.26l.08,0a13.85,13.85,0,0,0,4.13,0l.11,0a3,3,0,0,1,.67.15,2.87,2.87,0,0,1,1.05.65.19.19,0,0,0,.32-.21,3.11,3.11,0,0,0-.52-1l.46-.19a1.83,1.83,0,0,1,.51.06,1.63,1.63,0,0,1,.81.48c.09.12.39.13.31-.16a2.48,2.48,0,0,0-.64-.94,1.22,1.22,0,0,0,.4-.27,1.93,1.93,0,0,1,.87.67.19.19,0,0,0,.32-.18,2.83,2.83,0,0,0-.8-1.47.23.23,0,0,1,0,0,1.53,1.53,0,0,1,.29.13c.18.11.37.32.48.4s.32,0,.24-.3c-.15-.48-.47-1.16-1.19-1.21a2.58,2.58,0,0,0-1.37-1.3c-1-.37-2.62-.48-2.72-1.58-.13-1.48,1.24-2.08,1.77-3.54a31.16,31.16,0,0,0,1.23-4.09,37.41,37.41,0,0,1,1.29-5.32,66.87,66.87,0,0,0,7.68-.21c.27,1.37.56,2.69.85,3.91A3.11,3.11,0,0,1,840,93c-.15.3.31.2.47,0a2.64,2.64,0,0,1,.1,1.52c-.07.16-.14.23.08.44a1.35,1.35,0,0,1,.38.82,13.62,13.62,0,0,1-.15,1.48c.06.42.27.58.35.57s0-.57.34-.58a50.92,50.92,0,0,1,1.08,7.94,4.11,4.11,0,0,0,3.12,3.42c.87.18,1.4,1,3.9.57,1.39-.26,2.76.37,3.78-.27a5,5,0,0,1,1.45.76c.24.23.49.62.63.78s.51,0,.46-.41a3.56,3.56,0,0,0-.56-1.64,6.45,6.45,0,0,1,.91.18,2.92,2.92,0,0,1,1.29,1c.11.16.52.15.42-.28a3.9,3.9,0,0,0-.67-1.51,2.73,2.73,0,0,1,.46.16,4.15,4.15,0,0,1,1.46,1c.13.15.53.14.42-.28a5,5,0,0,0-1.66-2.48,2.19,2.19,0,0,1,.6.11,2.31,2.31,0,0,1,1.08.76c.11.18.52.22.42-.21a3.53,3.53,0,0,0-2.07-2.22,3.6,3.6,0,0,0-1.79-2.06,20.14,20.14,0,0,0-3.61-1.35c-.69-.38-.29-.59-.1-1.76l.33-2.06s.08-.06.13,0,0,.42.13.37.21-1.34.18-1.81c0-.25-.06-.59-.08-.95.13-.91.27-1.86.39-2.79.31-2.38.37-4.53.48-6.55,1.26,2.5,3,6.72,2.74,8.53-.19,1.61,1.34,5.8,1.31,6.59-.06,1.61.82,2.8,3.06,4.14a7.15,7.15,0,0,0,2.33.08c.37.12.76.17,1.06.25a3,3,0,0,1,1.38.87c.12.16.54.11.41-.31a4.24,4.24,0,0,0-.24-.57,6.06,6.06,0,0,0,2.9.13,11.76,11.76,0,0,0,1.52-.56c.24,0,.47.09.66.14a3,3,0,0,1,1.37.87c.12.16.54.1.4-.31a3.32,3.32,0,0,0-1-1.58l.12-.12a2.08,2.08,0,0,1,.42.1,3.58,3.58,0,0,1,1.36.76c.13.13.47.07.33-.3A4.81,4.81,0,0,0,873,102.6l0-.1a.84.84,0,0,1,.26.1c.25.18.53.5.69.63s.48-.05.37-.44A2.5,2.5,0,0,0,873,101a3,3,0,0,1,.93.42c.24.18.4,0,.24-.3a2,2,0,0,0-1.93-1.18l-.13,0a3.09,3.09,0,0,0-.41-.39c-.87-.67-3.59-.55-4.45-2,0-1.85.62-3.56.64-6.52,0-.46,0-.92,0-1.37.32.22.24.51.35.5.29-.05,0-1.41-.2-2.47a12.67,12.67,0,0,1-.29-2.19,14.52,14.52,0,0,0,.06-2.15,18.4,18.4,0,0,0-.51-1.86c-.06-1-.11-2.57-.06-4.07,1.2-2.2,1.66-1.89,1.95-1.75s1.72-.68,2.15-.88a1.87,1.87,0,0,1,.56-.17l.26,0a.66.66,0,0,1,.32.17c.32.29.51.69.82.79s.25-.07.26-.4a.64.64,0,0,1,.4-.51h.5a1.07,1.07,0,0,1,.64.66c.07.33.45.64.49.29s.6-.73.9-.91,1-.33,1.2.17.52.47.56.25.73-1,.9-.55c.23.6.76.66.69.55a1.59,1.59,0,0,1,.14-.86.81.81,0,0,1,.33-.28l.27,0h.19c.23.15-.32.49-.08.57s.79-.35,1.23-.29a7.05,7.05,0,0,0,1.26.14l.45.12a14.65,14.65,0,0,0,2.54.69,7.79,7.79,0,0,0,2.77.11c1-.19,1.73-1.67,2.22-2.07a10.8,10.8,0,0,1,1-.67c.36-.29.32-1,.77-1.06s1-.59.71-1.55a2.79,2.79,0,0,0-1.46-1.46,12.24,12.24,0,0,0-1-2.15,22,22,0,0,1-1.38-2.57,3.91,3.91,0,0,1-.16-2.38,3.52,3.52,0,0,0-.22-2.2,24.86,24.86,0,0,0-2.4-3.72,21.48,21.48,0,0,0-2.68-2.82,1.29,1.29,0,0,1-.11-.61c0-.73-.48-.94-.44-2.66,0-.64-.63-2-1.2-2.14a2.42,2.42,0,0,0-2.17.8,2.31,2.31,0,0,0-.79,2,13.82,13.82,0,0,0-4.66-.58l-.84,0a6.33,6.33,0,0,0-1.41-.76c-.26,0-.52,0-.53.12s.18.25,0,.3a.64.64,0,0,1-.56-.29c-.14-.19-.48-.43-.56-.37s.13.48,0,.51-.55-.16-.61-.38-.36-.45-.43-.41,0,.62-.17.66-.41-.45-.54-.48-.06.25-.28.24-.39-.28-.46-.41a.42.42,0,0,0-.42-.18c-.11.06.12.32-.06.38a.79.79,0,0,1-.63-.24c-.08-.13-.34-.42-.43-.4s-.1.33-.28.38-.69-.35-.92-.43-.71-.11-.92-.18-.38-.51-.5-.5-.26.41-.23.62a1.06,1.06,0,0,1-.68-.5c-.08-.22-.53-.57-.67-.54s0,.49-.16.61a.89.89,0,0,1-.61-.6,1,1,0,0,0-.81-.55c-.18,0,0,.24.1.34s0,.44,0,.44a.59.59,0,0,1-.42-.3,6.51,6.51,0,0,0-.39-.91.44.44,0,0,0-.41-.15c-.09,0,0,.54-.21.68-.27-.15-.19-.65-.25-.78a.65.65,0,0,0-.57-.33c-.2.06,0,.51-.21.62s-.52-.06-.58-.44.11-1,0-.93-.49.68-.66.69-.18-.34-.18-.53,0-.54-.15-.6-.14.06-.23.22a.61.61,0,0,1-.45.33c-.23-.12-.21-.15-.21-.43,0-.13.09-.48-.06-.46s-1,1.11-.95.91c.67-2.72-.74-.15-.84-.43s-.15-1-.39-1-.56.47-.9.6-.24-.18-.19-.38a1.89,1.89,0,0,1,.17-.51c.12-.2-.11-.16-.4.09s-.4.47-.54.63-.24.19-.23,0,.1-.33.11-.6-.05-.2-.32,0a1.44,1.44,0,0,0-.42.44.66.66,0,0,0-.07.15s0,0-.06,0c-.23,0-.13-.09-.24-.25s.06-.33,0-.32a.7.7,0,0,0-.55.3c-.14.23,0,.44-.07.51s-.53-.37-.61-.54-.08-.52-.26-.57-.55.16-.55.41,0,.34-.18.23a3.54,3.54,0,0,1-.65-.38c-.15-.15,0-.17-.22-.42s-.14-.33-.2-.4-.26-.29-.93.33c-.43.1-.79-.37-.85-.55s-.26-.27-.31-.17-.23.49-.06.76c-.1.19-.58.08-.89,0a3.59,3.59,0,0,1-1.3-.43c-.14-.07-.27.2-.25.47s-.49,0-.73-.12a1.18,1.18,0,0,0-.74-.14c-.09.07.33.38.23.54a3.48,3.48,0,0,0-1.07-.35c-.18,0,.19.33.2.44s-.13.21-.31.15a4,4,0,0,0-.79-.16c-.24,0-1-.44-.7.3,0,.1-1.29-.21-1.31-.06.05.6.4.75.76.74l-.81.2-.81-.19c-.3-.05-.72-.07-.77,0s.36.37.26.41-.55,0-.73.06.05.17.06.27a2.22,2.22,0,0,1-.9.18,1.47,1.47,0,0,0-.82.28c0,.09.32.11.25.21a1.34,1.34,0,0,1-.78.13,2.16,2.16,0,0,0-.87.06c-.1.14.23.21,0,.24a1.39,1.39,0,0,1-.91-.12,1.67,1.67,0,0,0-1.11-.1c-.08.15.21.39,0,.42s-.74-.38-1.14-.5a1.8,1.8,0,0,0-.84,0c-.06.1.26.35,0,.42s-.3-.32-.56-.5a1.47,1.47,0,0,0-.91-.14c-.15.1.06.39-.27.42s-.44-.08-.82-.34a2.44,2.44,0,0,0-1.11-.37c-.32,0-.45-.24-.61-.19s.08.32.37.57l-.75-.14a5,5,0,0,1-.55-.35c-.28-.13-.81,0-1.12,0a2.84,2.84,0,0,1-.89-.36,2.06,2.06,0,0,0-1-.14c-.06.15.36.16.4.39a24.85,24.85,0,0,0-3.82-.15l-.13-.12c-.08-.13-.15,0-.15.13-.64,0-1.31.08-2,.16a.56.56,0,0,1-.42-.13c-.09-.1-.15-.08-.11.09l0,.11-.26,0-.82.16-.24,0a2.16,2.16,0,0,0-1.1.1c0,.07.23.1.38.17-.33.09-.64.19-.94.29a4.91,4.91,0,0,0-1,.17,2.1,2.1,0,0,0-1,.44c0,.08.19.06.3.1-.26.14-.52.28-.76.44l-.11,0a3,3,0,0,0-1.08.36c-.15.11-.26.33-.2.42s.15,0,.24,0l-.51.42-.24.07a2.58,2.58,0,0,0-.83.22c-.28.15-.77.52-.74.59s.65-.23.89-.24a.6.6,0,0,1,.21,0l-.39.4a11.84,11.84,0,0,1-1.11.74A4.1,4.1,0,0,0,803.77,51c-.11.28.26,0,.45,0s.2,0,.26,0L803,52.94a21.91,21.91,0,0,0-1.28,1.9v0a10.07,10.07,0,0,1-1,1.1,2.57,2.57,0,0,0-.62,1.15,3.8,3.8,0,0,1-.33,1.11c-.09.12,0,.21.38-.1-.2.54-.37,1.09-.52,1.67-.19.39-.36.45-.47.7a3.89,3.89,0,0,1-.38.75c-.08,0,.15.18.46-.07,0,.54-.2.65-.42,1s-.25.43-.15.5a.52.52,0,0,1,.17.6,3.47,3.47,0,0,0-.48,1c-.07.37.05.63.17.38s.17-.23.26-.23,0,.2,0,.3-.18.33-.26.46a4.74,4.74,0,0,0-.5,1.63c.07.07.31-.21.57-.43-.14,1.44-.27,3-.4,4.74a1.75,1.75,0,0,1-.22.47,1.61,1.61,0,0,0-.13,1.41,1.74,1.74,0,0,1,.11,1.16A1.24,1.24,0,0,0,797.88,75.23Z"/><path d="M723.53,82.31c3.78,2.63,6.41,6.24,9.62,9.48.44.44,9.1,7.9,9.39,6.74.1-.4-1.06-2-1.19-2.3a8.32,8.32,0,0,0-1.53-2.3c.19-.74-1-2.09-1.16-2.8s-.63-.72-.74-1.33a6.31,6.31,0,0,0-.33-1.34c-.32-.68-.6-1.84-1.24-2.28A6.4,6.4,0,0,0,735.27,83a.57.57,0,0,0,0-.85c-.53-.84.15-.71-.21-1.18a4.44,4.44,0,0,1-.74-2c0-.76.77-1.57.34-2.37.06-.95.76-1.37.76-2.34,0-.82.63-1.64.56-2.5a7.9,7.9,0,0,0,1.1-2.79,3.59,3.59,0,0,0,.6-2.23c.86-.55,1.22-2.25,1.68-3.15a13,13,0,0,1,1.27-2.41,10.9,10.9,0,0,0,1.44-2.8c-.19-.68-4.5,2.35-4.88,2.68a65.23,65.23,0,0,0-6.33,6.33c-4,4.5-6.84,9.06-13.44,8.33a2.66,2.66,0,0,1,1.11-.82,2.19,2.19,0,0,0-1.94-.18,2.19,2.19,0,0,1-2.26.13,3.09,3.09,0,0,1,1.6-.84,2.25,2.25,0,0,0-2.22-.34c-1.28.64-1.28.63-2.78.13a2.38,2.38,0,0,1,1.69-.78,2.61,2.61,0,0,0-2.75-.71A5,5,0,0,1,706,72a3.39,3.39,0,0,1,2.33-.65,3,3,0,0,0-3-.77,4.53,4.53,0,0,1-3.54-.26c.39-.66,1.42-.51,2.08-.58a2.43,2.43,0,0,0-2.6-.72,2.61,2.61,0,0,0-1.11.61c-.65-.25-1.32-.45-2-.69a2.44,2.44,0,0,1,2.07-.64,2.82,2.82,0,0,0-2.91-.74,3.43,3.43,0,0,1-3.15,0,2.91,2.91,0,0,1,2.43-.8c-1.51-1.67-2.84-1-4.25.27-1.4-.45-2.74-1.14-4.16-1.52l2.67-1.19c-6-1.57-8-8.34-4.75-13.35-5,2.48-7.54,5.91-11.6,10.23-1.63-.31-1-2.22-1.7-2.49s-.31,1.18-1.14.1c0,0-.76-1.38-.85-1.3-1.6,1.43-1.22-1.33-2.18-.91-.55.24-.33.82-1.11.36a8.66,8.66,0,0,1-.87-1.42c-.49.15-.29.92-1.07.67s-.22-1-.49-1.47c-.11-.2-.76.57-.94.6-1,.19-.43-1.18-.81-1.46-.18-.13-.69.48-.89.52-1.14.25-.65-1-.94-1.47-.07-.13-.59.59-.81.59-1,0-.52-.95-.84-1.41-.17-.26-.54.6-.82.48-.68-.29-.27-1.16-.62-1.47s-.46.69-1.06-.24c-.06-.09-.28-1.17-.39-1.19-.54-.12-.71.92-1.35,0a10.51,10.51,0,0,1-.13-1.37c-.22.08-.86,1.12-1.18.6-.12-.19.35-1.36,0-1.35-.86,0-1.77.23-1.18-1.4-1.74.57-.35-1.42-.92-1.9s-1.09,1.19-1.8.38a42.69,42.69,0,0,0-10.4,11.27,37.92,37.92,0,0,0-2,3.51q-.45.93-.85,1.88-1.47.18-2.94.43a72.72,72.72,0,0,0-8.95,2.14,81.35,81.35,0,0,0-15.8,6.66,33.29,33.29,0,0,0-6.23,4.1c-.55.5-4.56,3.81-4,3.93,0,0,.66.44.71.45.5.11.13,0,.56.2,1.35.59,2.82.66,4.75,1.93a51.34,51.34,0,0,0-6.4-1.46c-1.48,1.57,4.58,5.2,5.59,5.87a51.31,51.31,0,0,0,10.75,5.55,25.46,25.46,0,0,0,4.93,1.32,39.6,39.6,0,0,1,5.57,1.46c1.65.49,8.48,1.09,9,2.54a21.83,21.83,0,0,0,6.56,8.94c.45.38,2.53,2.22,3.08,1.62,1-1.06.87-3.31.51-4.6-.22-.77.23-1.43,0-2.2-.36-1.54-2.33-2.78-3.46-3.69,8.43,1.2,16.67,2.13,25.15.93,5.46-.77,10.85-2,16.22-3.27a21.43,21.43,0,0,0,7,4.24c1,.36,5,2,5.94,1.38-.36.24-3.22-3.61-3.46-4.23-.57-1.43.78-3.73-1.24-4.24,1.14-.38,2.28-.74,3.42-1.13.53-.18.88.49,1.38.7a2.68,2.68,0,0,0,2.91-.69c-.42-.14-2.27-.4-2.45-.71,1.48-.59,1.4-.55,2.72,0a2.7,2.7,0,0,0,2.84-.71,3.3,3.3,0,0,1-2.38-.56c1.58-.66,1.4-.56,2.81,0a2.67,2.67,0,0,0,2.89-.69,3.51,3.51,0,0,1-2.45-.72c1.62-.69,1.53-.67,3-.08a2.69,2.69,0,0,0,2.87-.7,4.19,4.19,0,0,1-2.44-.66c1.45-.61,1.42-.58,2.72-.09a2.33,2.33,0,0,0,2.59-.75,3.35,3.35,0,0,1-2.07-.49c1.46-.58,1.36-.48,2.66,0a2.69,2.69,0,0,0,2.84-.71,4.12,4.12,0,0,1-2.26-.56c.95-.35,1.83-1,2.68-.4a2.32,2.32,0,0,0,3.14-.46,2.29,2.29,0,0,1-2.05-.4c1.31-.39,4.54-1,7,.74"/><path d="M381.44,42.49c-.7-2.25-4.33-3.68-8.23-4.07A35.69,35.69,0,0,0,357,41.15a48.14,48.14,0,0,0-11.65,6.8,59,59,0,0,0-10.9,10.74c-1.31,1.73-1.59,3.7-2.79,4.61-.06-.46.1-1.66-.68-2.11l-.75-.44c.29-1.21,1.81-7,4.24-10.35a28.7,28.7,0,0,1,6.69-6.65c.52-.33,1.08-.36,1.44-.58s.46-.93.31-1c-.56-.31-1.18.36-1.57.78s-4.69,3.38-7.32,7.2c-2.45,3.57-4,9.27-4.27,10.35A3.15,3.15,0,0,0,328.6,60a2.76,2.76,0,0,0-1,.36c-.32-1.24-1.86-6.83-4.25-10.32-2.62-3.82-6.91-6.7-7.32-7.15s-1-1.09-1.57-.78c-.16.08,0,.84.31,1s.92.25,1.44.58a28.07,28.07,0,0,1,6.69,6.59c2.38,3.27,3.88,8.94,4.23,10.32l-.9.52c-.78.46-.62,1.66-.68,2.11-1.09-.58-2-3.12-3.55-5.48-1.69-2.51-4.08-5.11-10.13-9.88a48.32,48.32,0,0,0-11.65-6.8A35.7,35.7,0,0,0,284,38.42c-3.9.39-7.54,1.82-8.23,4.07-.54,1.75,1.86,7.16,4.07,10.31,1.65,2.34,2,5,2.6,7.71.87,3.81,2.44,9.5,6.76,10.91,4,1.3,11.69-1,11.69-1s.17,1.39-2.43,2.42-4.16,2.77-5.72,5.72c-1.4,2.64-2.51,6.18-2.51,7.75,0,2.42.61,3.29.52,4.42a5.08,5.08,0,0,0,1.35,3.81c1.07,1.18.65,2.21,1.13,3.51a5.38,5.38,0,0,0,2.12,2.12,5.92,5.92,0,0,0,1.73,4.42c1.56,1.43,3.32,2.36,4.46,3.38a7.85,7.85,0,0,0,4.54,2.34c1.45.28,2.34,2.63,5.37,2.46,3.29-.19,3.28-.06,5.37-.91,3.37-1.38,4.88-7.92,6.32-14.23,1.13-4.94,2-8,3.49-9a36.41,36.41,0,0,0,.21,7.7s-.46,2.47,0,2.89c-.2,1.27.2,3,.41,3,.09,1,.63,2.92,1.39,2.92s1.3-1.88,1.38-2.92c.22,0,.61-1.69.41-3,.42-.42,0-2.89,0-2.89a38.67,38.67,0,0,0,.2-7.76c1.33.68,2.37,4.17,3.5,9.11,1.44,6.31,2.95,12.84,6.33,14.23,2.09.86,2.08,0,5.37.17,3,.17,3.92-2.69,5.37-3a7.88,7.88,0,0,0,4.55-2.34c1.15-1,2.9-1.95,4.46-3.38a5.94,5.94,0,0,0,1.73-4.42A5.39,5.39,0,0,0,364,96.76c.47-1.3,0-2.33,1.12-3.51a5.06,5.06,0,0,0,1.34-3.81c-.09-1.13.52-2,.52-4.42,0-1.56-1.12-3.86-2.52-6.5-1.56-2.94-3-4.63-5.71-5.72s-2.42-2.42-2.42-2.42,7.73,2.34,11.7,1c4.31-1.41,5.89-7.1,6.75-10.91.61-2.67,1-5.37,2.6-7.71C379.57,49.65,382,44.23,381.44,42.49Z"/><path d="M950.76,50c.41.61,3.71,4.67,5.84,6a5.7,5.7,0,0,1,1.25-.83,7.67,7.67,0,0,1,.73-.31c-2.48-5.13-6-11.93-7.69-14.11-.78-1-3.38-1.69-1.84-3.32,1.85-2,3,.59,3.38,1.88.14.54,4,7.9,7.39,13.29.13-1.63,0-3.09-.32-3.5s-.66-1.81.29-2c1.22-.23,1.41.66,1.06,1.66-.26.72.66,3.89,1.59,5.68.38,0,.74.1,1.09.17,1.5.31,2.57.61,3-.2.64-1.27,1.08-3.54,1.52-11s1.23-10.45.79-11-1-2.83,1.21-2.7c1.51.09.68,2,.53,3.28s0,5.13,0,9.93-.58,13.4.94,15,6.36,5.12,9,7.19c2.21,1.74,4.35,4,6.43,4.68A7.58,7.58,0,0,1,991.22,68c4.44-2.25,9.21-5.52,16.42-7.74,8.33-2.57,16.73-2.34,26.86,2.47s13.49,15,13.58,20.9c.06,3.72-1,7.72-4.18,12.54,4.25,2.25,8.92,4.52,12.36,4.62,4.06.12,6.41-1.11,7.26-.07s-1.46,3.76-6.42,6.72c-7.91,4.73-16.83,1.19-23.38.9a10.09,10.09,0,0,1-3.37.24c-.7.16-1.93.28-1.93,0-2.78.49-9.23.34-11.35-1.49a20.75,20.75,0,0,1-6.3,1.5,17.07,17.07,0,0,1-7.32-.22c-1.37-.2-2.73-.46-4.07-.78a74.34,74.34,0,0,1-14-3.22c-3.79-1.44-6.09-3.31-5.43-5.9,1.29-5.07-2.57-6.58-3.69-8.28s-1.61-4.1-2.89-5.84-2.55-4.28-4.74-6.37-7.14-5.62-8.81-8.85c-1.32-2.56-3.28-1.55-5.37-5.14-.76-1.3-.58-3.89.58-6-1.68-2.71-4-6.83-4.76-6.77s-1.84-.54-1.42-1.41C949.35,48.72,950.18,49.1,950.76,50Z"/><path class="cls-1" d="M96.21,33.91l1.21-.38c1,.43,1.47,1.31,2.2,2.38a26.53,26.53,0,0,0,9.15,2.17l.11-.08c0-2-.77-3.13-1.42-5.42-.44-1.56.22-2.67-.53-4.41l.17-.45c.68,1.37,2.47,3.07,2.67,4.18L109.34,34l.87,3.5.55.76c1.11-1.55.91-4.08,1.43-5.81.66,1.18.31,7.68.45,9.58a1.35,1.35,0,0,0,.69.5c.26-1.08,0-2.23.82-3.23.76,2.5-.77,6,.52,8.53l.34.25c1.44-.11,3-1.17,4.48-1.57,3-.8,14.5-3.94,16.56-2.66,3,1.82,7.82,10,8.95,13.37.53,1.59.27,4.77,1.36,5.79,2.45,1.34,10.36-3.19,13.6-3.34,5.14-.24,11.3,1.31,16.07,3.3,1.43.6,6,3.7,7.19,3.58l.59-.09c0-.16,0-.32,0-.48-.84-3.7-4.32-6.15-4.41-10-.09-4.14,3.83-8.06,4-11.82.18-3.06-1.76-6.59-1.31-9.62l-.16-.22.11-.08,2.57,6.56.23.33c2.36-2,1.58-5.63,2.36-8,.27-.83.94-.71,1.48-1.39l.52-2c1,3.45-2.06,6.34-1.78,9.69l.08.11L190,38.12l1.65-1.84c1.62-.73,1.75.56,4.23-1.23a18.72,18.72,0,0,1-3.45,3.47c-.85.32-2.16,0-3.16,1.11l-1.3,2.09,0,.3c2.34.75,4.66,2.5,7,3.25-1.57.54-5-.4-6.3-1.41l-.48,0-.14.26a9.4,9.4,0,0,0,2,3.5l-.14.26-.11.08-2.25-2.67c-1.22,1.34-.68,3.14-1.14,4.61l-2.52,6.59c.59,1.22,2.18,2.25,3.08,4.06,1.79,3.58,5.42,11.74,9.23,14l8.68,2.67,4.61,4.11L213.35,83c2,1.44,1.12,3.55,1.43,4.75l2.28,3.64c1,1.93,1.81,4,2.61,5.71-.56.79-1.07,2.09-2.51,2.47-4.35,1.15-18.64-5.35-22.7-9.09-2-1.88-3.44-4.4-5.19-5.84-3.74.08-5.1,3.93-9.31,5.87l-2.43.75.08.11c1.41.84,7.46,3.93,8.79,3.74,2.34,0,2.58-2.67,3.59-3.73l.08.11c-.06,1.56-2.1,3.39-1.76,4.9a15,15,0,0,1,6.88-2.14l.22-.16-7.15,3.82,1.89,1.94c1.18.77,2.56.63,3.76,1.1l4,2.76.23.33-.11.08c-2-1.43-2.42-.41-4.08-.86-2.12-.58-4.18-2.61-6.18-3.32l-.32.24.78,4.06a3,3,0,0,1,1.47,1.59c.28.77.29,2,.66,3l-.2.64-.63-2c-.51-.61-1.38-.24-2-1.57-.78-1.83-.92-4.11-2.31-6.43l-.08-.11c-1.52.16-3.86,3.65-4.76,5.08l-.33.23c.37-2.46,2.54-4.44,2.58-7-3.43-2.31-8.38-1.73-11.36-5.7.53-5.09,6.42-5.16,9-9.46l.22-.16c-2.18-2.84-5.36-2-8-2-4.21,0-13.84.18-17.48-1.13-1.81-.66-4.23-3.28-5.93-3.66l2.93,5c2.27,4.91,4.66,10.57-1.24,13.43-1.09-.4-1.87-1.44-3-2.12-2.71-1.63-5.85-2.34-8.66-5.16l-.59.1-.11.08c.61,1.38,2,1.47,3.08,2.9-1.06-.15-1.76-1.28-2.87-1.24l0,.3c0,3.14,6.69,3.47,6.59,5.49-.9-1.67-2.61-.72-3.94-1.12l-1.93-1.08-.48,0c3,5.55,7.27,2.22,9.45,5.58l-.11.08c-4.15-1.86-4.58,1.26-9-3.1l-.86,0c-.4,2.07-.63,5.16.14,7.32l3.83,4.18-.11.08c-1.28-.9-2.68-.18-4-1.72-1.5-1.69-.59-4.55-.81-6.18a27.09,27.09,0,0,0-4.22-11.16c-2.72-.9-5.62,1.22-8.3-.3l-.55-.76c1.11-.08,1.93.66,3,.68,1.7,0,2.76-.77,4.67-1.54l-.22-2.15a7.52,7.52,0,0,1,10.1-1.32l.3,0A16.68,16.68,0,0,1,138.92,75l-7,2.22-15-.14c-16.21,1.39-32.28,4.8-48.91,9.08L55.92,90.58,44.32,94.63C29.86,100.92,15.06,114.14,0,123.19c2.15-3.28,7.44-5.06,10.54-8.07l8.3-6.13c6-4.31,11.31-8.32,17.3-11.28L44.48,93c7.56-3.32,15.08-6.63,22.43-9.19l9.72-3.69C89,77,101,75.48,113.22,72.5c7.58-1.84,15.08-5.87,22.5-7.26.49-1.58-3.21-14-5.08-16.48-1.94.53-4.13,2.75-6.13,3.41s-11.42.09-12.93-.77l-2-2.53c-2.82-.06-3.75.83-6.79,1.58-1.7.42-4.79-.08-6.45-.48,1.31-.56,2.3.13,3.46,0s2.07-1.8,3.2-2l2.59.61a11.35,11.35,0,0,0,4.1-1c.52-1.9-.56-6.83-1.86-8.56-2.57-.88-5.79-2.22-8.5-2.64-1-.16-1.77.47-2.76-.16s-1.08-1.86-1.85-2.8a2.36,2.36,0,0,0-2.07.33c0-.56.16-.74.77-1.22A2.83,2.83,0,0,1,96.21,33.91Z"/><path class="cls-1" d="M476.4,2.32a18.67,18.67,0,0,1,2,3c.39-1,1,.18,1-1,.28.69,1.26,1.4.66,2,1.54-1.53-1.37-3.78-1-6.3,1,.69,1,2.34,1.33,3.64.89-.44,0-2.65,1.32-2.65-.23,1.51.37,3.36,0,4,.27-.06.33-.33.66-.33.77-1.73.83-2.29,1.66-3,.82.29-.1,2.31.66,2.65A6.56,6.56,0,0,1,485.35,2c1.41-.06,2.08,2.56,1,3,.86.9,1.12.35,2,0-.06.94-.61,1.38-.66,2.32.32-.57,1.1-.67,1.32-1.33.37.68-.84,2.2.33,3.31.44-.61.07-1.12-.33-2,1.24.25,1.62-.37,1.66-1.33.95-.26-.86,1.84-.33,3.31.72.06.15-1.17.33-1.66.85.26.07,2.13,1.33,2,.3-.25.28-1.06.33-2.32.61.53,1.31,1.6,1.66,0,1,.47-.91,2.16,1,2A12.79,12.79,0,0,0,495.63,6c.33.21.34.76,1,.66A1.88,1.88,0,0,0,496.29,8,2.71,2.71,0,0,0,497,6c.61,1.62,0,3.27.33,4.31,1.4-.72.67-1.52,1-3.31,1.19-.19,1,1,1,2,1,0,.14-1.85,1.66-1.33-.13,1.09-1,1.46-1.33,2.32a1.82,1.82,0,0,0,1.33-1.33c.83,0,.09,1.12,0,1.33.3.8,1-.75,2-.33a1.87,1.87,0,0,0-.33,1.33c-.53.09-.57-.31-1-.33-.16,1,1.52.25,1.66,1-.13,1-1.09,1.12-1.33,2,.41-.37.68-.29.66.33,1.39-.15.26-2.83,1.66-3-.75.76.56,1.57-.33,2.65,0,.78.9-.12.66-.66.71.21.31,2,0,2.32,1.52-.43.45-1.49.66-3,.89-.23.64.68,1,1,.51-.57.5-3.37.66-.66.94.05.83-.94,1.33-1.33.73,1.76-.49,2.86,1,3-.14.63-.12,1.43-1,1.33.21.34.76.34.66,1,1.59-.81.73-.6,2.32-.66.9,1.26-.9,2.18.33,2.32a2.32,2.32,0,0,1-1,.66c.22,1,.71-.32,1.33,0a.91.91,0,0,1-1,.66c.06.27.33.33.33.66,1.49-1.31,2.86-3,1-.33.09.7.88-.48,1.33.33a7,7,0,0,1-3.64,3c.74,1.52,3.12-.4,4,.33-.3.69-1.87.12-2,1,.82.59,1.69-.2,2.32,1,.44-.33,1.23-.31,1.33-1,1.08.89-.87,1.54-1.66,1.66.58,1,.46,2.63,2.32,2.32.52,1.18-1.12.2-1,1,.3.37.62.1,1.66.33.14.69-.23.88-.33,1.33.13-.17,1.61-.49.66-.66.06-.38.33-.18.33,0h.66c0,1.26-1,1.47-2,1.66.22.34.76.34.66,1,.6,0,.7-.4,1.33-.33-.05-.39-.6-.28-1-.33a1.45,1.45,0,0,1,1.32-.66c.51,1.61-1,1.25-1,2.32-1,.17-1.29-.72-2,0,.49,1.25,1.77-.23,2,1-1.38.83-1.43,2.39-3,2-.12,1.66-1.06,1.63-.33,3,.4-.38.6-.95,1.66-.66a1.55,1.55,0,0,1-.33-1,1.81,1.81,0,0,0,2.32.33v.66c1.2-.6-.59-.91-.33-1.66,2,2,1-3.28,1.66-4.64.35,1.24.26,4.89-.66,6,.3.9.74-1,1.33,0a.91.91,0,0,1-.67,1c.08.48,1,.12,1,.66.54-1.17,1.67-.77,2-2.65-.87-.1-1.09.46-1,1.33-.37.87-.42-1.31-.66-1.66.62-.82,2-.4,3-1.66.9.3-.28,1.22-.66,1.33a1.46,1.46,0,0,0,1.33.66c-.44.55-1.47.52-2,1,.59.4,1.81.14,3,.66-1,.74-3.18.29-3.65,2.32.36,1.17,1.62-1.17,2,0,.91-.53.75-2.12,2.65-1.66-.28.49-1.07.48-1.66.66a24.76,24.76,0,0,1,4.31.66c-1.92,1.11-5.5.17-8,2,.06.38.33.18.33,0,1,.4-.23,1.27-.33,1.66,1.48.36,1.05.77,2.32-1,0-.32-.4-.26-.66-.33.06-.27.33-.33.33-.66.28.06.31-.13.33-.33.57,1.29,1.32-.46,2.65-.33-.23.89.69.64,1,1a6.51,6.51,0,0,1-2.32,1c-.18.73.63.47.66,1,1.18,0-.71-1.1.33-1,1.78.44-.84,1.6.33,2.65,1-.22-.32-.71,0-1.32,1-.16.88.89,1.66,1-.38-1.12-.66-.52-.33-2,1.86-.26.86,1.1,1.33,1.66.52,0,1.26.16,1.33-.33-.08-.86-.57.45-1.33,0,.12-1.21,2.81.16,2.32-1.66,1.16.15,1.4.7,1,1.66.2-.46,1.27-.05,1.32-.66.66.57-1.47,1.16-1.66,2,.25.65,1.06-.9,2.32-.33.13.64,1.28.26,1,1.33-1.52-.22-1.92.18-1.33,1.33-1.55-.52-1.1.28-2.65.33.56,1.66,2.12,0,4,1,.65.89-3.56-.25-4,.66,0,.74.83-.43,1.66,0-.38.4-.95.6-.66,1.66-.43-.12-.52-.58-1-.66-.25,1,1.14.4.66,1.66.83-1.71,2.34-2.74,5-2.65-.41,1.27-1.36-.05-2.32.66a5.69,5.69,0,0,0,1.32,1c-1.47.65-1.31.89-3,1.33.07.44,1.38.62,0,.66,1,1.55,2.66-.17,3.65,1-.15.49-.43-.13-1,0-.23.89.68.64,1,1,.83.62-.55,0-1,0-.44,1.41,2.64,0,1.33,1.33,1,.25.4-1.14,1.66-.66.18.74-.64.47-.66,1,.65.16,1.69-.89,1-1,.35-.75,2.08-.13,3-.33-.9,1.07-1.59.77-2.32,2.32,1.82.53,2.47.68-.33.66.14.35,1.82.77,1.66.33.54.47,1.15,2.16-.33,2,0-.32.4-.26.66-.33-.28-1-.83.43-1.66,0,.05.61,1.12.2,1.33.66-.8.88-1.76-.46-2.32.66,1.84.62.86.6-.66,1,.7.28.8,1.25-.33,1.33.55.53,2.29-.57,2.65-1.33.91.3-.77,1.35,1,1,.12.56-.26.63-.66.66a7.22,7.22,0,0,0,3.65.66c-.62.91-3.08.15-5,0a.9.9,0,0,0,.66,1c-.63.83-1.44-.41-2.32.33-.13.79,1.51-.18,1,1,1.44,0,.76-.48,2.32-.66-.55,1.5-1.52.76-2.32,1.66,0,.73,1.41.14,2,.33.31,1.2-1.31.46-2,.66.88.77,2.12.19,2.65.66-.05.39-.6.28-1,.33,1.17.71,2.58,1.18,3.31,2.32a6.42,6.42,0,0,0-4-1c-.53.06.54,1.57-1,1.33.69.74.45,2.65-.33,2,.76,2.3,1.74,1.08,2.32,4-.89-1.3-2.17-.4-4-1,1.39,1.53,4.15.94,4.31,3-3.51-1-6-4.8-9.28-4,1.9.52,3.17.7,3.31,2.32-.49-.17-.83-.49-1.33-.66.48,1,1.57,1.31,2.65,1.66-.09.78-1.46.19-1.66,0,1,1,2.34,1.64,3.31,2.65-.86.4-2.32-1.43-3.31-2-.64.13-.26,1.28-1.33,1,.23-.27.52-.91,0-1-.37.3-.11.61-.33,1.65-.85,0-1.16-.61-1.66-1-.93.43,1,.68.66,1.66-.9-1.26-.8-.09-1,.33-1.15-.28-.69-2.18-1.66-2.65-.74.14-.13,1.63-.33,2.32-1-1.23-1.76-2.66-2.65-4-2.23-.49-.76.79-2,1,.5-1.63-1.59-3.74-1.66-2.65-.92-.34.15-1.94.66-1,.05-.82.06-1.61-.66-1.66-1,.61-2.07,5.25-.66,6.63-1.55.45-.65-1.56-1.66-1.66.53-1.27.53-.39,0-1.66,1.36.34.23-2.73-.33-4,1.1-.33,1.09.46,1,1.33.48-.41.5-1.26,1-1.66-.41-.68-3,.07-3.31.33-.92-.14,0-1,.66-.66-.49-.78-.7-.62-.33-1.66-.34-.25-1.92-.54-3-1,.57-.32.67-1.1,1.33-1.32a2.34,2.34,0,0,0-1-.66c.22-1,.71.32,1.33,0,0-.93-.81-1-1.66-1,1.67-1.12,2.36.37,4.64-.33.06-.94-2.17.4-1.66-1,.85.18,1.16.44,1.66-.33-1.2-.22-2.27.15-3.31,0,.39-1.44-2-1-2.65,0,.85-1.85-1-.68-.66-2.65,1.79-.14,1.39.93,3,.33-.77-1.13-1.84-1.79-.66-3.31-.29-1.17-1.23.2-1.66-1-.06.38-.53,1.91.33,2.32-.5,1.1-.81-.69-1.66-.33.05.93,1.57.41,1.32,1.66-1.3.27-2.66-2.44-3.31-.66-.26-.84-2-.18-2-1.33-.44.33-1.23.31-1.33,1,.11.77.21,1.55,1.33,1.33-.53.89-1.05.49-1.66,0,.1.68.89.65,1,1.33.59,0,.7-.41,1.33-.33-.85,1.55.6,2.38,1.66,3-.2,2.62-.38,5.12.33,7.29-.63.14-.6.95-1.66.66.23-1.67-.46-2.42-.66-3.65-1.32,2,.78,3.66-1,5.3a.91.91,0,0,1-.66-1c-1,.46.46,1.63-.33,2-.45-.1-.27-.83-.33-1.32-1,.29-.37.49-.33,1.32-.82.43-1.37-1-1.66,0-.65-1.67-.4-4.24-1.33-5.63-6.67.7-12,7.57-13.26,14.25-1.84,10.18-7.56,23.11-5.3,33.47,9.4,1.42,20.06,1.59,30.49,2,.43.68,1.61.6,1.33,2H443.93c1.66-3.47,6.58-2.15,10.27-2.32,6.63-.31,16.43,1.29,21.54-.66,2-.74,2.85-3.93,3.31-7,1.86-12.19,7.66-23.61,6.3-38.11-.3-.59-1.35-.42-1-1.66a1.57,1.57,0,0,0,1,.33c-.69-.75-1.66-1.44-2.65-1,0-.66.9-.42.66-1.33.85.17,1.16.44,1.66-.33-.3-.91-1.16.59-1.66-.33.3-1.37-.06-1,.66-1.32-.76-1-1.42,1-2,1.32a2.35,2.35,0,0,0,1,.66c-.52.25-.5,1.05-1.33,1V74.9c-.57.93-.41.77-1.32,1-.3,1,.34,2.71,1,1.66.89.3-.15,1.34-1,1,.06,1,.89,2.05.33,2.65-.77-.09-.76-.88-.33-1.33-.57-.12-.63.26-.66.66-.93-.33.09-1.41,0-2-.57.62-1.41,2.07-2.32,1.33.08-.58.57-.76,1.33-.66.23-.89-.68-.64-1-1,.09-.68,1.47-.08,1.32-1-.58,0-.69-.65-1.66-1,.14-.52,1-.28.66-1.33-.52.14-.28,1-1.33.66.56-.32.85-.92.66-2a4.73,4.73,0,0,1-2.32,1c.22-1.34,1-.58,1.66-1,0-2.54-1.15-2.32-.33-4-1.55.44-1.27,2.71-2.32,3.65-1.16.3-.56-1.08-.33-1.33-1.42,1.36.14,4.21.66,6.3-2,0-.95,1.65-2.32,2.65-1.13-.65-.79-.19-.66,1-1.26-.48-.64.91-1.66.66.17-.83.88-1.11,1-2-.48-.61-1.51,0-2.65.33-.12-.56.26-.62.66-.66,0-.6-.41-.7-.33-1.33,1.61.39,1.26-1.17,2.32-1.33-.5-1.1-.81.69-1.66.33-.06-.28.13-.31.33-.33.53-.62-.28-1.43-1-1.33.26-.23.86-2-.33-1.66a2.71,2.71,0,0,1,2-.66c-1.26-1.09.39-1,0-3-1.19.8-1,3-2.32,3.65-.5-1.16-1.73-1.56-3.65-.33-.63,0-.23-1.1-1-1a14.61,14.61,0,0,1,1.66-1.33c-.3-1-1.22-.1-1.33-.66-1.25.85-.13,3.74-2,4,1.08-.24.42-1.7-.33-.66-.91-.14,0-1,.66-.66a.91.91,0,0,0-1-.66c.08-.59.57-.76,1.33-.67.05-.93-.94-.83-1.33-1.32a28.5,28.5,0,0,0,1.66-2.32c.14-.68-2.7,1.13-1,1-.12.47-1.69,1.13-2,.33,0,.8-1.93,1.3-2,3,1,.15,1.06-.71,1-1.66.68.09.31,1.24,1,1.33a1.62,1.62,0,0,1-1.66.66c.05.39.6.28,1,.33-.5,1.4-1.14.61-2.32.33,1.56-.91-.62-.53-.66-1.66a1.62,1.62,0,0,0,1.66-.66c-.1-.09-1.39-.47-1.66,0-.29-.81,3.1-2.31,2.32-3.65-.63,1.19-.84.56-2,.66-.66.42-.83,2.44-2.32,1.66,0-.61,1.12-.2,1.33-.66-1.2.31-3.06-.93-4-1,2.27-.92,4.82.25,5.64-2.32,1.55,0-.39.76-.33,1.32.27.67,1.7-1.27,2.32-.33.27-1.17-1.52-1.43,0-2-.1-.45-.83-.27-1.33-.33-.89,1.1-1.45,2.52-3.31,2.65-.58-.29.25-1.45-.33-.66-.89-.29.15-1.34,1-1a1.46,1.46,0,0,0-1.33-.66c.2-.69.7-1.07,1-1.66a1.55,1.55,0,0,1-.33-1c-1,.22.32.71,0,1.33-.91.24-.67-.66-1.33-.66a2.82,2.82,0,0,1,.33,2c-1,0-2-1-1.33-1.66-1.1,1.18-2.49.17-2.65,2-.52-.14-.28-1-1.32-.66.85-.61.2-.83,1-1.66-.59.29-.84.93-2,.66-.54.31,2.34-1.31,2.32-2.65-1.17.33-.61.57-1,1.33a2.05,2.05,0,0,0-1.66,0c.25-1-1.14-.4-.66-1.66,1.65.09,1.66.08,1.32-1.33,1.28.75.89-.75,2.32-.66-1-1.25-2.29-.27-3.65,0-.05-.45,1.69-.66.66-1,.83-1.07,2.51.77,3-.66-.08-.85-.57.46-1.33,0A4.86,4.86,0,0,0,448.9,55c-.79,1.75-2.5,2.58-4.64,3-.12-1.12,1.44-.55,2-1-.1-.78-1.15-.62-1-1.66h1.66c-.36-1-.34-1.06,1-1-.66-.68-.66-.31,0-1-1.16-.66-1.49,0-3-1.32-.18-.73.63-.47.66-1-1.4-1.22-1.78.64-2.32.66-.06-.83.51-1,1-1.33-.3-.9-.62.88-1.66.33-.18-.73.63-.47.66-1-.65-.16-1.69.89-1,1-.25.75-1.86.13-2.65.33a1.19,1.19,0,0,1,1.66-1c-.64-1.06.42-1.45.33-2.32-.29-1-.5-.37-1.33-.33-.19-1-.24-.57-.66-1.66,1,.37.75,0,2,0,.1-.87-1.29-.26-1-1.32.59,0,.7.4,1.33.33.36-.08.22-.66.66-.66-1.84-.62-.86-.6.66-1-.84-.28-.7-1.51.66-1.33-1.39-1-2.28,1.25-3.65,1.33a.91.91,0,0,1,1-.66c-.1-.45-.83-.27-1.32-.33,2.29-1.57-6.14-2.28-.66-2,.7,0,.9.52,2.65.33.9-.3-.88-.62-.33-1.66.43.12.52.58,1,.66.66,0,.42-.9,1.33-.66-.65-.35-1.32-.67-2-1-.35.56-.08.67-1.66,1a5.69,5.69,0,0,1,2.65-2c-.14-.74-1.64-.13-2.32-.33-.34-1.11,1-.51,1.66-.66-.3-.58-1-.73-2-.66,2.11-.86-1.37-1.57-2.65-2.65.68-.87,2.07.33,2.32,1,.84.36,1.28-1.55,1.32,0,.74-1.22,1.57-2.33,1-4,1,.25.4-1.14,1.66-.66a4.63,4.63,0,0,1-3.31-3.65c1.67,1.2,2.15.14,4.31,1.33-1.1-1.66-4.18-1.35-4.64-3.65,3.75,1.39,5.83,5.09,9.61,4.64-1.18-.93-2-.23-3.31-1,.28-1.06.28-.69-.33-1.33-.8-.73.72.43,1.33.33a2.77,2.77,0,0,0-2.32-1.33c.4-.38.13-.84,0-.33-.92-.14,0-1,.66-.66a30.19,30.19,0,0,0-2.65-2.32c1-.67,2.21,1.31,3,2,.48-.91.83-.38,1.66,0,.49-1.26-1.48-.06-1-1.32.28-.06.31.13.33.33.73.18.47-.63,1-.66.83-.06,1,.51,1.33,1,.49,0-.37-2.29,1-2.32a2.94,2.94,0,0,0,1,3c.35-.24.4-1.65,0-2.65,1.26.49.07-1.48,1.32-1-.34,1.76-.77,1.94,0,3.64.29.5.5-.09,1.33.33-.62.63,0,.83,0,1.66.57.07.86-.56,1,0,.45-.1.27-.83.33-1.32a16.52,16.52,0,0,1,1.66,3.65c.32,0,.25-.41.33-.66,1.47-.15-.4,2.7-.33,1-.94.44.25,1.48.33,2,.75-.13,0-2.07,1-1,.35-1.73.78-5.08-.33-6.3,1.71-.32.59,2.19,1.66,1.66-.61,1.2-1.21,4.3.33,5,.28,1.06-.29,1.26-.66,1.66-.72.06-.15-1.18-.33-1.66-.88-.11.31,1.86-1,1.33.91,2,2.26-.47,3.64.33-1.37,1-.09.73-.66,2.32a13.85,13.85,0,0,0,2.65,1,31.76,31.76,0,0,0-1.66,3c.24.35,1,0,1.66.66-1,.52-3-.91-4.64,0,.06.27.33.33.33.66,1.08-.6,1-.35,2.32-.66.16,1.37-1-.44-.66,1.33-.68-.79-1.31.45-2-.33a1.57,1.57,0,0,1,.33,1c1.36-.34,1.87-.79,3.31-.33-1.38,1.06.84.74,1.66,1,.41-1.07-1.07-.25-.66-1.32.72.75,1.13-.28,2.32,0,.69.29-1.55.41-1.33,1.32.65.56,2.07.36,3,.66-.14.74-1.76,0-2,.66-.22,1.66.89,2,1.65,2.65-.21.56-.76.21-.66-.33-.34.22-.34.76-1,.66-.12-1.07-1.09-2.4-.66-3-.47.61-1.61-.52-2.32.33l1.66,1.66c-1,0-.17,1.82-1.33,1.66,1.61.6,1.67,2.75,4,2.65-1.39,1.52.69,2.9,1.66,4,.83-.23-.61-.88-.33-1.66,1.33,1.06.62.15,1-1,1,0,1.14.85,1.33,1.66.76-.85,2.07.11,2-1,.79.64,1.93.94,2.65,1.66-.37.87-1.28-.45-1.66-.66a3,3,0,0,0-.33,3.32c.85-.08-.46-.57,0-1.33.77.8,1.07.51,2.32.33-.15,1,.89.88,1,1.66.2-1.46,1.61-1.71,1.66-3.31,1.09,1-2.18,3.55-.33,5,1.35-.89,2.75,0,4.31-1-.7,2,.86-.43,1.66,0a.92.92,0,0,0-1-.66c.72-.64,2.73.16,3.31-2,0-.78-.9.12-.66.66-.52-1.62-.43-3.43-1.66-5.63-2.19-.27-1.94.13-2.65-1-.45.1-.28.83-.33,1.33.15-1.16-5.3-2.3-6-.66-.29-1.28.55-1.43,1-2a.92.92,0,0,0-1-.66c-1,0,.47,2.46-1,2,.17,1.22.52,1.27-.33,2-.75-.19.4-.52-.33-1-.89-.13-2,1.34-.33,1-.1.45-.83.27-1.33.33a2.51,2.51,0,0,1,.66-2.32c.32,0,.26.41.33.66.36-.08.23-.66.66-.66-.06-.38-.33-.18-.33,0-1-.28.2-1.07,0-1.66.57-.12.62.26.66.66.9-.3-.34-1.16-.33-1.66-.86.13-1,1-2,1,.95-2,3.26-2.7,4.31-4.64-.1-.45-.83-.27-1.32-.33-.34-1,.74-.59,1.32-.66-1.15-.55.21-1.9-1.66-2,.51-.59,1.94-.27,2-1.33-1.09.09-2.5.83-2.65-.66a2.32,2.32,0,0,0,2,0c-.66-.68-.66-.31,0-1-.68.39-3.11,0-3.31,1.66-1-.77.62-1.79.33-3-1.25-.25-.23,1.76-1.66,1.33,1.71-1.84-2-1.9-.33-3.31-1.09,0-1.65.56-3,.33.19-1.08-.22-1.54-.33-2.32-.84.58-1.62.85-2.32,0,.28-1,1.07.2,1.66,0,.43-1.31-1-.8-1-1.66.42,1.45-3.28.87-3-1.32,1,1,1-.65,2.32-.33a5.72,5.72,0,0,0-1.33-1c.46-1,1.64.09,2,.33q.09-1.08-1-1c.41-.56,1-1.69,1.66-1,.09-2.25-2-.39-2.65-2,.69-1.23,1.4,1,2,0a2.34,2.34,0,0,0-1-.66c.57-1,1.21.75,2.32.33,0-1.17-1,.23-.66-1.66a30.35,30.35,0,0,1,2.32,2.65c.89-1.11-2.2-2.51-1-4,.61,0-.63,1.67.66,1.66-.22-.36.94-1.24.33-1.66.5-1,1.45.27,2.32,0-.72-.63-1.21-1.24-1.66-1.33-.33-1,.74-.59,1.33-.66a1.45,1.45,0,0,0-1.33-.66c.14-.74,1.76-.26,2,0,.59-1-.79-2,.33-3.65,1.08.42.7.48,1.66.66A3.72,3.72,0,0,1,472.76,8c.65.57,1.66.77,2,1.66.73,0,.14-1.41.33-2,.69-.14.88.23,1.33.33.93-.43-1-.68-.66-1.66.89-.23.64.69,1,1,.5-2.51.61-2.19-.33-5M450.56,22.53a2.07,2.07,0,0,1,0,1.66,1.58,1.58,0,0,1,1,.33,1.9,1.9,0,0,0-1-2m12.92,5c.44-.26,2.23-.82,1.33-1.32-.06.49-.8.3-1.33.33Zm9.28-18.56c.66.23.76,1,1.33,1.33-.18,0-.38.27,0,.33.95-.69-.8-2.51-1.33-1.66m27.84,4c0-.73,2.54-.51,1.33-1.33a.34.34,0,0,1-.66,0c.18,0,.38-.27,0-.33-.38.64-1.15.95-.66,1.66m-26.51,2c-1-.2-1.22-3-2.32-2,.59.16-.14.35-.33.66,1.36-.24,2,2,2.65,1.32m-3.64,4c.51.09.23.73,0,1,.65.1.66-.45,1-.66.39,0,.75.59,1,0-.4-.07-.2-.37,0-.66-.63.07-.73-.37-1.32-.33,0,.44-.58.3-.66.66m-.66,1c.07.63-.37.73-.33,1.33.44,0,.3.58.66.66.19-1,.52.51,1,.33.23-.58.37-1,0-1.33-.23.44-1.1-.37-1.33-.33a.34.34,0,0,0,0-.66m-8.95,15.91c-.14-.8.61-.72.33-1.66-1.18-.52-.2,1.12-1,1s-.85-1.77-1.66-1.33a3.15,3.15,0,0,0,2.32,2m1,0c.32-.68.68-1.31,1-2-1.71-.25-1.27,1.85-1,2m24.52,3c0,.42-.43.46-.33,1,.33,0,.39.27.66.33.21-.9,1.38-.82,1.33-2-1.12,0-.74,2.22-1.66.66m25.52,3.31c.88-1.58-1.11-1,.33-2.65a1.86,1.86,0,0,1-1.33-.33,2.66,2.66,0,0,0,1,3m-28.5,0c.82.23,1.41-1.42.66-1.66-.37.4-.95.6-.66,1.66m-8,2.32c.37-2.29,1.64-1.69,2-3.64-1.13,1.27-2.79,1.86-2,3.64m43.08-.33c-.06-.72.27-1.06,1-1,0,.2,0,.39.33.33.1-.65-.45-.66-.67-1,.21,0,.39-.05.34-.33-.83,0-1.62,1.66-1,2m-2.32,0c-.9.24-.67-.66-1.32-.66-.76,2.22.73,2.33,1.32.66m-25.85,2.65c-.48-1-1.43-1.45-1.66-2.65,0,1.84-1.55.06-2,1.33,1.28.27,1.41,1.68,2.65,2-.34-1.44-.38-.6,1-.66m6.3-1c.19-1,.52.51,1,.33-.29-.81-.3-1.91-1.33-2-.07.63.37.73.33,1.33-.18,0-.37.27,0,.33m-18.89.33c.78.25,2.29.65,3,0,.06-.83-.74-.81-1-1.33-.07.59.33,1.66-.66,1.33,0-.43.42-.46.33-1-.65.1-.66-.45-1-.66-.34.43-.32,1.22-.66,1.66m3.64-.33c0-.2-.05-.39-.33-.33-.32,1.19,1.43.59,1.66.33.06-.83-.51-1-1-1.32-.06.5.12,1.22-.33,1.32m35.13,3c.9.62-.76-.45-.66.66,1.65.53,2.45-1.5,2-2-.11.78-1,.74-1.33,1.33m-54.35.66c.45-.42.51-1.62-.33-1.66-.45.42-.51,1.62.33,1.66m-7.29,1.33c0-1.11.66-1.75-.33-2.32-.07,1.15-.47,1.56.33,2.32m-8.95.33a1.57,1.57,0,0,1,1,.33c-.48-1.25.91-.64.66-1.66-.63.07-.73-.37-1.33-.33.27.94-.47.86-.33,1.66m67.27,2c-1.45.45-.7-1.28-2-1,.17.83.88,1.11,1,2,2.6-.69.35-3.41-.66-4.31,0,1.65,1,2.28,1.66,3.31m-40.43-.33V51a2,2,0,0,1-1.66,0c-.37,1.47,1,1.19,1.66,1.66M518.16,54c.05-1,0-2-.66-2.32.15,1.29-.83,2.08.66,2.32M495,55c1,.28,2.15-.9,1.33-1.33-.18,1.64-.17-.34-.66-.33-.46.2-.05,1.28-.66,1.33-1-.23-.27-2.53-.67-1.66-.52,0-.26.85-1,.66-.32-.62,1-1.11,0-1.33-.66.78-.76,2.11-.66,3.65,1.34.46,1.05-.72,2-.66a3.56,3.56,0,0,0,0,2.32c-1.29-.25-.41,0-1-1-.09.47-.73.38-1,.66.17,1.81.28,3.75,1.32,3-.23.65-.88.88-1.66,1-.64-.83.51-1.36-.33-2-.74.81.48,2.54-.66,1.66-.08.63.37.73.33,1.32h3.64c-.13-1.89,2-3.73,0-4.64,2.16-1-.66-.43-.33-2.65m-29.83-1.66c.19,2,1.64.36,1.66-.66-1.08.42-.71.48-1.66.66m2.65,1.33c-.56-1.23.07-.65.66-1.33-.45-.1-.63-.47-1.33-.33-.2,1.78-1.78,2.2-1.32,4.64,1.73-.19.82-4.09,2-3m29.49,0c1,.38.81-.52,1.33-.66,0,.2,0,.39.33.33-.06-.5.12-1.22-.33-1.33.09,1.08-1.28.7-1.33,1.66M515.51,57c.39-1.45,1.79-2.33,1-3.32-.22.89-1,1.26-1.33,2,.25.07.65,0,.66.33-1-.16-1.24.89-.33,1m-47.72-1c1.7.72-1.08.31-.33,2,1.46-1,2.15-.92,3.65-1.66-.59-.18-1.38-.17-1.66-.66,1-.44,1.84,1,2.32,0a33,33,0,0,0-3.65-1c.47,1.61.82.79-.33,1.33m-2.65,2c.07-.26,0-.65.33-.66-.26-.85-.33-1.88-1-2.32.25.74-1.53,1.05-.33,1.66.58-.66-.34,1.35,1,1.33m-3.31.66c2.1-1.17-.52-1.09.33-3-1-.15-1.06.71-1,1.66,1-.33.59.74.66,1.33m71.91,0h-1c-.1.87.69.85,1.33,1,.58-.69.22-2.71-.66-1.66.26.07.39.28.33.66M467.12,62.3a6.21,6.21,0,0,0,2.65.33c.15-1.4,1.68-1.41,2-2.65-1.67-.21-.2-1.84-.66-2,0,.46-1.29,1.29-1.33.66.36-.08.8-.55.33-.66-1.07.37-.13,2.74-1.33,3-.27-1.07.41-2.87,0-3-1.25.74-1.48,2.5-1.66,4.31m-2-2c-.2,0-.39,0-.33.33.81,0,1.22-2.06,1-2-.42.75-1.91,1.06-.66,1.66M464.47,62c.94-.15,2.9-1.34,1.33-2,.23,1.33-1.4.81-1.33,2m61-1.33c-.13-1,.87-1.69-.33-2-.46.42-.58,2,.33,2m-29.49,0a1.87,1.87,0,0,1-.33,1.33c1.1-.11,1.47-1,3-.66-.13-.8.61-.72.33-1.66h-2.32c-.27.93.47.86.33,1.66-.47-.08-.56-.55-1-.66m21.21.33a.71.71,0,1,0,0-1.33ZM493.64,68.6c-.2-2.08.25-3.51.33-5.3-1.91.52-2.47,2.38-3,4.31.62.32,1.11-1,1.33,0,0,.39-.59.75,0,1,.08-.51.55,0,.66.33-.79.69-1.46-.74-2.32-1-.28,2.54-.33,4.78.33,6,.5.06,1.22-.12,1.33.33,0,1.17-1.09-.7-1,.33.65,1.19,2-.34,2,1.33-.63.07-.73-.37-1.32-.33a1.86,1.86,0,0,1-.33,1.33c.52,0,1.15,0,1,.66a9.4,9.4,0,0,0,5.63-5.63A3,3,0,0,1,497,70.59c1.89,0,1.47-2.55.33-3,.3-.58.74-1.28,1.33-.66.49-1.26-1.48-.06-1-1.33-.13-.79,1.51.18,1-1-1.82-.62.42-1.53-1-2.32.26-.07.66,0,.66-.33-1.73,0-3.18,1.56-3.31,1.33-.42.47-.29,4.34-1.33,5.3m18.23-5c.09-.51.73-.23,1,0-.43-.82.74-1.61,0-1.66.12.82-2.07,1-1,1.66m-47.72,1c1.41.08.57-2.08,1.66-2.32-1.7-.37-1.22,1.43-1.66,2.32M470.77,63c-.88-.63-1.73,1-1.66,2.32a1.55,1.55,0,0,1,1,.33c.51-1.32,1.38-2,.66-3.31ZM460.5,64.62c.94.25,2.34-.7,1.33-1.33-.11.78-1.57.2-1.33,1.33m6,0c-.26-.07-.38-.28-.33-.66-1.39-.06-1.71,2.14-.66,2.65,1-.56.08-1.49.66-2,0,.18.27.38.33,0m1,4c.62-1.41,1.87-2.29.66-4a.34.34,0,0,1-.66,0c0-.2,0-.39-.33-.33a3.83,3.83,0,0,0,.33,4.31m-7,.33c.53-.46,1.3-.68,1.66-1.33-1.38.3-1.41.9-2.32-.33a1.62,1.62,0,0,0,.66,1.66m6,0c-.09,1,1.06,1.29.33,2,1.41.29,2.65-1.3,2-2-.79,1.4-.33-.18-.66-.33,0,.84-1.23.78-1.66.33m36.79,1c-1.48.58-1.55,1.71-1.66,3,2.12-.13,2.26,1.72,4,2-.12-1.42-.89-2.2-1-3.64-.9.15-1.55.31-2,0a1.46,1.46,0,0,0,.66-1.33m-26.18,2.32c1.19.31.57,2.81,1.66,2.32a.34.34,0,0,0,0,.66c0-1,1.12-2.61.66-3-1.73,1.32-1.81-1.81-2.32-1.33.55.66,0,.42,0,1.33m-8.29-.66a2.81,2.81,0,0,1-2-.33c.25,1-.91.64-.66,1.66,1.18-.25,2.28,1,2.65-.33-1.1.44-1.44-.22-2-.33.33,0,.39-.27.66-.33.07.37.37.51.66.66.08-.47.55-.56.66-1m50.37,2c.05-.39-.06-.94.34-1a.33.33,0,0,0,.66,0c-.63-.14-.6-.95-1.66-.66,0,.82-.06,1.61.66,1.66m-10.6,1c0-1.06.33-2.54-1-2.32a2,2,0,0,0,1,2.32m1.66-1c-.06-.5.12-1.22-.33-1.32-.09.51-.73.23-1,0-.15,1,.29,1.48,1.33,1.32m-9.28,1c.79-.2,2.4.42,2.65-.33-.63-.14-.6-.95-1.66-.66.52,1.18-1.13.2-1,1m4.31,3.31c-.16-1,.6-1.17.33-2.32-.49-.17-.84-.49-1.33-.66.44.88.11,2.55,1,3m23.86.66c.86.6,1-.14,2,.33,0-1.29-1.46-.94-2-.33M491,80.2c.17-.49.49-.83.66-1.33-.44-.34-1.22-.32-1.66-.66a3.3,3.3,0,0,0,1,2"/></g></g></svg>